<svg xmlns="http://www.w3.org/2000/svg" width="1915.665" height="144.534" viewBox="0 0 1915.665 144.534">
  <g id="Group_529" data-name="Group 529" transform="translate(-2.497 -3212.758)">
    <g id="logo-white-1" transform="translate(2.497 3212.758)">
      <path id="Path_1" data-name="Path 1" d="M83.744,31.05l-.362,2.838C80.954,50.095,74.907,67.5,55.112,67.721c-18.3.164-20.932-16.917-18.451-33.56C39.09,17.9,47.411,0,65.6,0,75.682,0,86.949,4.966,84.623,24.775l-17.469.055c1.085-8.567-.775-8.949-3.773-8.949-7.752,0-9.355,14.243-10.078,19.208C52.838,39.781,50.564,52,57.076,51.841c5.737-.109,6.409-5.13,7.546-8.458l-5.53-.109L60.746,31.05Z" transform="translate(-18.159)" fill="#707070"/>
      <path id="Path_2" data-name="Path 2" d="M127.4,68.947,137.271,3.3h16.8l-9.82,65.647Z" transform="translate(-62.383 -1.499)" fill="#707070"/>
      <path id="Path_3" data-name="Path 3" d="M265.7,68.947,275.52,3.3h16.849l-7.546,50.2h12.611L295.108,69H265.7Z" transform="translate(-129.205 -1.499)" fill="#707070"/>
      <path id="Path_4" data-name="Path 4" d="M453.768,68.9l.052-8.458H442.5L439.814,68.9H422.5L447.308,3.2h20.57l3.359,65.7Zm.155-22.373.465-15.225c.1-4.093.413-8.295.62-12.387H454.8c-1.085,4.093-2.171,8.295-3.411,12.387l-4.6,15.225Z" transform="translate(-204.967 -1.454)" fill="#707070"/>
      <path id="Path_5" data-name="Path 5" d="M625.82,3.3h31.268l-2.326,15.5h-14.42l-1.4,9.168H651.92l-2.326,15.443H636.622l-1.5,10.041h14.471l-2.326,15.5H616Z" transform="translate(-298.46 -1.499)" fill="#707070"/>
      <path id="Path_6" data-name="Path 6" d="M32.868,198.8l.052-8.458H21.55L18.862,198.8H1.6l24.808-65.7h20.57l3.359,65.7Zm.1-22.373.465-15.225c.1-4.093.413-8.295.62-12.387H33.9c-1.085,4.093-2.171,8.295-3.411,12.387l-4.6,15.225Z" transform="translate(-1.6 -60.468)" fill="#707070"/>
      <path id="Path_7" data-name="Path 7" d="M243.771,133.1H275.04l-2.326,15.5h-14.42l-1.4,9.168h12.972l-2.326,15.5H254.573l-1.5,10.041h14.419l-2.326,15.5H233.9Z" transform="translate(-113.841 -60.468)" fill="#707070"/>
      <path id="Path_8" data-name="Path 8" d="M407.835,131.1c17.055,0,21.087,17.953,18.658,34s-11.784,34-28.839,34S376.566,181.14,379,165.1,390.728,131.1,407.835,131.1Zm-7.7,51.35c6.357,0,8.579-13.315,9.2-17.408s2.377-17.408-3.98-17.408-8.579,13.315-9.2,17.408S393.777,182.45,400.134,182.45Z" transform="translate(-183.634 -59.559)" fill="#707070"/>
      <path id="Path_9" data-name="Path 9" d="M605.272,133.1H636.54l-2.326,15.5h-14.42l-1.4,9.168h12.972l-2.326,15.5H616.073l-1.5,10.041h14.419l-2.326,15.5H595.4Z" transform="translate(-288.507 -60.468)" fill="#707070"/>
      <path id="Path_10" data-name="Path 10" d="M557.481,72,555,89.08l2.533-16.971Z" transform="translate(-268.987 -32.71)" fill="none"/>
      <g id="Group_1" data-name="Group 1" transform="translate(269.113 1.746)">
        <path id="Path_11" data-name="Path 11" d="M572.071,24.482C574.19,8.275,564.577,3.2,550,3.2H532.171L522.3,68.9h17.365l1.654-11.078L543.8,40.689l.052.164.31-2.019L549.175,68.9h18.968l-7.907-28.594C567.884,37.524,571.3,30.43,572.071,24.482Zm-16.745-.764a8.129,8.129,0,0,1-8.114,6.494l-1.861.055,1.912-12.715h2.119C553.568,17.552,556.1,19.462,555.325,23.718Z" transform="translate(-522.3 -3.2)" fill="#707070"/>
      </g>
      <g id="Group_2" data-name="Group 2" transform="translate(238.258 72.632)">
        <path id="Path_12" data-name="Path 12" d="M511.7,133.1l-12.094,40.491.31-40.491H479.707L462.6,198.8h18.089l5.427-26.739c.982-4.857,1.6-9.659,2.429-14.57h.155l-.31,41.309h13.7l8.838-26.9c1.55-4.8,2.843-9.6,4.29-14.352h.155l-4.651,41.309h17.469l3.824-65.7H511.7Z" transform="translate(-462.6 -133.1)" fill="#707070"/>
      </g>
      <path id="Path_13" data-name="Path 13" d="M164.864,133.1l2.326,14.952-10.853-5.73-5.84,28.649-2.119,10.641v-.218l-.517,2.4-4.6-50.641h-16.59l-9.716,50.913-2.739-50.913H98.4l4.031,65.7h23.981l7.081-38.963c-.1,4.529,4.238,38.963,4.238,38.963h21.707l16.642-65.7H164.864Z" transform="translate(-48.371 -60.468)" fill="#707070"/>
      <path id="Path_14" data-name="Path 14" d="M221.371,24.482C223.49,8.275,213.877,3.2,199.3,3.2H181.471L171.6,68.9h6.615l-.775-8.622,11.939,6.112,4.7-31.869L199.457,68.9h18.037l-7.959-28.594C217.184,37.524,220.6,30.43,221.371,24.482Zm-16.745-.764a8.129,8.129,0,0,1-8.114,6.494l-1.861.055,1.912-12.715h2.119C202.868,17.552,205.452,19.462,204.625,23.718Z" transform="translate(-83.739 -1.454)" fill="#707070"/>
      <path id="Path_15" data-name="Path 15" d="M363.091,37.344c3.67,5.621,3.514,11.569,1.964,16.7-1.809,6.057-7.6,15.334-24.033,14.515A95.519,95.519,0,0,1,329.6,67.411l2.377-16.371a20.978,20.978,0,0,0,10.388,2.237c1.964-.164,4.548-.873,5.272-3.984a6.289,6.289,0,0,0-.775-4.857c-.724-1.091-1.4-2.237-2.119-3.165a56.616,56.616,0,0,1-5.427-8.022,26.2,26.2,0,0,1-1.912-17.79C339.213,9.4,344.02-.418,360.455.455a78.744,78.744,0,0,1,10.388,1.2l-2.429,16.371a17.206,17.206,0,0,0-9.355-2.292c-1.964.164-4.548.819-5.272,3.929a6.128,6.128,0,0,0,.775,4.857C355.235,25.72,361.385,34.779,363.091,37.344Z" transform="translate(-160.08 -0.182)" fill="#707070"/>
      <path id="Path_16" data-name="Path 16" d="M335.091,167.644c3.67,5.621,3.514,11.569,1.964,16.7-1.809,6.057-7.6,15.334-24.033,14.515a95.516,95.516,0,0,1-11.422-1.146l2.377-16.371a20.978,20.978,0,0,0,10.388,2.237c1.964-.164,4.548-.873,5.272-3.984a6.289,6.289,0,0,0-.775-4.857c-.724-1.091-1.4-2.237-2.119-3.165a56.612,56.612,0,0,1-5.427-8.022,26.2,26.2,0,0,1-1.912-17.79c1.809-6.057,6.615-15.88,23.051-15.007a78.746,78.746,0,0,1,10.388,1.2l-2.429,16.371a17.206,17.206,0,0,0-9.355-2.292c-1.964.164-4.548.819-5.272,3.929a6.128,6.128,0,0,0,.775,4.857C327.235,156.02,333.385,165.079,335.091,167.644Z" transform="translate(-146.551 -59.378)" fill="#707070"/>
    </g>
    <g id="logo-white-1-2" data-name="logo-white-1" transform="translate(391.756 3212.758)">
      <path id="Path_1-2" data-name="Path 1" d="M83.744,31.05l-.362,2.838C80.954,50.095,74.907,67.5,55.112,67.721c-18.3.164-20.932-16.917-18.451-33.56C39.09,17.9,47.411,0,65.6,0,75.682,0,86.949,4.966,84.623,24.775l-17.469.055c1.085-8.567-.775-8.949-3.773-8.949-7.752,0-9.355,14.243-10.078,19.208C52.838,39.781,50.564,52,57.076,51.841c5.737-.109,6.409-5.13,7.546-8.458l-5.53-.109L60.746,31.05Z" transform="translate(-18.159)" fill="#707070"/>
      <path id="Path_2-2" data-name="Path 2" d="M127.4,68.947,137.271,3.3h16.8l-9.82,65.647Z" transform="translate(-62.383 -1.499)" fill="#707070"/>
      <path id="Path_3-2" data-name="Path 3" d="M265.7,68.947,275.52,3.3h16.849l-7.546,50.2h12.611L295.108,69H265.7Z" transform="translate(-129.205 -1.499)" fill="#707070"/>
      <path id="Path_4-2" data-name="Path 4" d="M453.768,68.9l.052-8.458H442.5L439.814,68.9H422.5L447.308,3.2h20.57l3.359,65.7Zm.155-22.373.465-15.225c.1-4.093.413-8.295.62-12.387H454.8c-1.085,4.093-2.171,8.295-3.411,12.387l-4.6,15.225Z" transform="translate(-204.967 -1.454)" fill="#707070"/>
      <path id="Path_5-2" data-name="Path 5" d="M625.82,3.3h31.268l-2.326,15.5h-14.42l-1.4,9.168H651.92l-2.326,15.443H636.622l-1.5,10.041h14.471l-2.326,15.5H616Z" transform="translate(-298.46 -1.499)" fill="#707070"/>
      <path id="Path_6-2" data-name="Path 6" d="M32.868,198.8l.052-8.458H21.55L18.862,198.8H1.6l24.808-65.7h20.57l3.359,65.7Zm.1-22.373.465-15.225c.1-4.093.413-8.295.62-12.387H33.9c-1.085,4.093-2.171,8.295-3.411,12.387l-4.6,15.225Z" transform="translate(-1.6 -60.468)" fill="#707070"/>
      <path id="Path_7-2" data-name="Path 7" d="M243.771,133.1H275.04l-2.326,15.5h-14.42l-1.4,9.168h12.972l-2.326,15.5H254.573l-1.5,10.041h14.419l-2.326,15.5H233.9Z" transform="translate(-113.841 -60.468)" fill="#707070"/>
      <path id="Path_8-2" data-name="Path 8" d="M407.835,131.1c17.055,0,21.087,17.953,18.658,34s-11.784,34-28.839,34S376.566,181.14,379,165.1,390.728,131.1,407.835,131.1Zm-7.7,51.35c6.357,0,8.579-13.315,9.2-17.408s2.377-17.408-3.98-17.408-8.579,13.315-9.2,17.408S393.777,182.45,400.134,182.45Z" transform="translate(-183.634 -59.559)" fill="#707070"/>
      <path id="Path_9-2" data-name="Path 9" d="M605.272,133.1H636.54l-2.326,15.5h-14.42l-1.4,9.168h12.972l-2.326,15.5H616.073l-1.5,10.041h14.419l-2.326,15.5H595.4Z" transform="translate(-288.507 -60.468)" fill="#707070"/>
      <path id="Path_10-2" data-name="Path 10" d="M557.481,72,555,89.08l2.533-16.971Z" transform="translate(-268.987 -32.71)" fill="none"/>
      <g id="Group_1-2" data-name="Group 1" transform="translate(269.113 1.746)">
        <path id="Path_11-2" data-name="Path 11" d="M572.071,24.482C574.19,8.275,564.577,3.2,550,3.2H532.171L522.3,68.9h17.365l1.654-11.078L543.8,40.689l.052.164.31-2.019L549.175,68.9h18.968l-7.907-28.594C567.884,37.524,571.3,30.43,572.071,24.482Zm-16.745-.764a8.129,8.129,0,0,1-8.114,6.494l-1.861.055,1.912-12.715h2.119C553.568,17.552,556.1,19.462,555.325,23.718Z" transform="translate(-522.3 -3.2)" fill="#707070"/>
      </g>
      <g id="Group_2-2" data-name="Group 2" transform="translate(238.258 72.632)">
        <path id="Path_12-2" data-name="Path 12" d="M511.7,133.1l-12.094,40.491.31-40.491H479.707L462.6,198.8h18.089l5.427-26.739c.982-4.857,1.6-9.659,2.429-14.57h.155l-.31,41.309h13.7l8.838-26.9c1.55-4.8,2.843-9.6,4.29-14.352h.155l-4.651,41.309h17.469l3.824-65.7H511.7Z" transform="translate(-462.6 -133.1)" fill="#707070"/>
      </g>
      <path id="Path_13-2" data-name="Path 13" d="M164.864,133.1l2.326,14.952-10.853-5.73-5.84,28.649-2.119,10.641v-.218l-.517,2.4-4.6-50.641h-16.59l-9.716,50.913-2.739-50.913H98.4l4.031,65.7h23.981l7.081-38.963c-.1,4.529,4.238,38.963,4.238,38.963h21.707l16.642-65.7H164.864Z" transform="translate(-48.371 -60.468)" fill="#707070"/>
      <path id="Path_14-2" data-name="Path 14" d="M221.371,24.482C223.49,8.275,213.877,3.2,199.3,3.2H181.471L171.6,68.9h6.615l-.775-8.622,11.939,6.112,4.7-31.869L199.457,68.9h18.037l-7.959-28.594C217.184,37.524,220.6,30.43,221.371,24.482Zm-16.745-.764a8.129,8.129,0,0,1-8.114,6.494l-1.861.055,1.912-12.715h2.119C202.868,17.552,205.452,19.462,204.625,23.718Z" transform="translate(-83.739 -1.454)" fill="#707070"/>
      <path id="Path_15-2" data-name="Path 15" d="M363.091,37.344c3.67,5.621,3.514,11.569,1.964,16.7-1.809,6.057-7.6,15.334-24.033,14.515A95.519,95.519,0,0,1,329.6,67.411l2.377-16.371a20.978,20.978,0,0,0,10.388,2.237c1.964-.164,4.548-.873,5.272-3.984a6.289,6.289,0,0,0-.775-4.857c-.724-1.091-1.4-2.237-2.119-3.165a56.616,56.616,0,0,1-5.427-8.022,26.2,26.2,0,0,1-1.912-17.79C339.213,9.4,344.02-.418,360.455.455a78.744,78.744,0,0,1,10.388,1.2l-2.429,16.371a17.206,17.206,0,0,0-9.355-2.292c-1.964.164-4.548.819-5.272,3.929a6.128,6.128,0,0,0,.775,4.857C355.235,25.72,361.385,34.779,363.091,37.344Z" transform="translate(-160.08 -0.182)" fill="#707070"/>
      <path id="Path_16-2" data-name="Path 16" d="M335.091,167.644c3.67,5.621,3.514,11.569,1.964,16.7-1.809,6.057-7.6,15.334-24.033,14.515a95.516,95.516,0,0,1-11.422-1.146l2.377-16.371a20.978,20.978,0,0,0,10.388,2.237c1.964-.164,4.548-.873,5.272-3.984a6.289,6.289,0,0,0-.775-4.857c-.724-1.091-1.4-2.237-2.119-3.165a56.612,56.612,0,0,1-5.427-8.022,26.2,26.2,0,0,1-1.912-17.79c1.809-6.057,6.615-15.88,23.051-15.007a78.746,78.746,0,0,1,10.388,1.2l-2.429,16.371a17.206,17.206,0,0,0-9.355-2.292c-1.964.164-4.548.819-5.272,3.929a6.128,6.128,0,0,0,.775,4.857C327.235,156.02,333.385,165.079,335.091,167.644Z" transform="translate(-146.551 -59.378)" fill="#707070"/>
    </g>
    <g id="logo-white-1-3" data-name="logo-white-1" transform="translate(781.015 3212.758)">
      <path id="Path_1-3" data-name="Path 1" d="M83.744,31.05l-.362,2.838C80.954,50.095,74.907,67.5,55.112,67.721c-18.3.164-20.932-16.917-18.451-33.56C39.09,17.9,47.411,0,65.6,0,75.682,0,86.949,4.966,84.623,24.775l-17.469.055c1.085-8.567-.775-8.949-3.773-8.949-7.752,0-9.355,14.243-10.078,19.208C52.838,39.781,50.564,52,57.076,51.841c5.737-.109,6.409-5.13,7.546-8.458l-5.53-.109L60.746,31.05Z" transform="translate(-18.159)" fill="#707070"/>
      <path id="Path_2-3" data-name="Path 2" d="M127.4,68.947,137.271,3.3h16.8l-9.82,65.647Z" transform="translate(-62.383 -1.499)" fill="#707070"/>
      <path id="Path_3-3" data-name="Path 3" d="M265.7,68.947,275.52,3.3h16.849l-7.546,50.2h12.611L295.108,69H265.7Z" transform="translate(-129.205 -1.499)" fill="#707070"/>
      <path id="Path_4-3" data-name="Path 4" d="M453.768,68.9l.052-8.458H442.5L439.814,68.9H422.5L447.308,3.2h20.57l3.359,65.7Zm.155-22.373.465-15.225c.1-4.093.413-8.295.62-12.387H454.8c-1.085,4.093-2.171,8.295-3.411,12.387l-4.6,15.225Z" transform="translate(-204.967 -1.454)" fill="#707070"/>
      <path id="Path_5-3" data-name="Path 5" d="M625.82,3.3h31.268l-2.326,15.5h-14.42l-1.4,9.168H651.92l-2.326,15.443H636.622l-1.5,10.041h14.471l-2.326,15.5H616Z" transform="translate(-298.46 -1.499)" fill="#707070"/>
      <path id="Path_6-3" data-name="Path 6" d="M32.868,198.8l.052-8.458H21.55L18.862,198.8H1.6l24.808-65.7h20.57l3.359,65.7Zm.1-22.373.465-15.225c.1-4.093.413-8.295.62-12.387H33.9c-1.085,4.093-2.171,8.295-3.411,12.387l-4.6,15.225Z" transform="translate(-1.6 -60.468)" fill="#707070"/>
      <path id="Path_7-3" data-name="Path 7" d="M243.771,133.1H275.04l-2.326,15.5h-14.42l-1.4,9.168h12.972l-2.326,15.5H254.573l-1.5,10.041h14.419l-2.326,15.5H233.9Z" transform="translate(-113.841 -60.468)" fill="#707070"/>
      <path id="Path_8-3" data-name="Path 8" d="M407.835,131.1c17.055,0,21.087,17.953,18.658,34s-11.784,34-28.839,34S376.566,181.14,379,165.1,390.728,131.1,407.835,131.1Zm-7.7,51.35c6.357,0,8.579-13.315,9.2-17.408s2.377-17.408-3.98-17.408-8.579,13.315-9.2,17.408S393.777,182.45,400.134,182.45Z" transform="translate(-183.634 -59.559)" fill="#707070"/>
      <path id="Path_9-3" data-name="Path 9" d="M605.272,133.1H636.54l-2.326,15.5h-14.42l-1.4,9.168h12.972l-2.326,15.5H616.073l-1.5,10.041h14.419l-2.326,15.5H595.4Z" transform="translate(-288.507 -60.468)" fill="#707070"/>
      <path id="Path_10-3" data-name="Path 10" d="M557.481,72,555,89.08l2.533-16.971Z" transform="translate(-268.987 -32.71)" fill="none"/>
      <g id="Group_1-3" data-name="Group 1" transform="translate(269.113 1.746)">
        <path id="Path_11-3" data-name="Path 11" d="M572.071,24.482C574.19,8.275,564.577,3.2,550,3.2H532.171L522.3,68.9h17.365l1.654-11.078L543.8,40.689l.052.164.31-2.019L549.175,68.9h18.968l-7.907-28.594C567.884,37.524,571.3,30.43,572.071,24.482Zm-16.745-.764a8.129,8.129,0,0,1-8.114,6.494l-1.861.055,1.912-12.715h2.119C553.568,17.552,556.1,19.462,555.325,23.718Z" transform="translate(-522.3 -3.2)" fill="#707070"/>
      </g>
      <g id="Group_2-3" data-name="Group 2" transform="translate(238.258 72.632)">
        <path id="Path_12-3" data-name="Path 12" d="M511.7,133.1l-12.094,40.491.31-40.491H479.707L462.6,198.8h18.089l5.427-26.739c.982-4.857,1.6-9.659,2.429-14.57h.155l-.31,41.309h13.7l8.838-26.9c1.55-4.8,2.843-9.6,4.29-14.352h.155l-4.651,41.309h17.469l3.824-65.7H511.7Z" transform="translate(-462.6 -133.1)" fill="#707070"/>
      </g>
      <path id="Path_13-3" data-name="Path 13" d="M164.864,133.1l2.326,14.952-10.853-5.73-5.84,28.649-2.119,10.641v-.218l-.517,2.4-4.6-50.641h-16.59l-9.716,50.913-2.739-50.913H98.4l4.031,65.7h23.981l7.081-38.963c-.1,4.529,4.238,38.963,4.238,38.963h21.707l16.642-65.7H164.864Z" transform="translate(-48.371 -60.468)" fill="#707070"/>
      <path id="Path_14-3" data-name="Path 14" d="M221.371,24.482C223.49,8.275,213.877,3.2,199.3,3.2H181.471L171.6,68.9h6.615l-.775-8.622,11.939,6.112,4.7-31.869L199.457,68.9h18.037l-7.959-28.594C217.184,37.524,220.6,30.43,221.371,24.482Zm-16.745-.764a8.129,8.129,0,0,1-8.114,6.494l-1.861.055,1.912-12.715h2.119C202.868,17.552,205.452,19.462,204.625,23.718Z" transform="translate(-83.739 -1.454)" fill="#707070"/>
      <path id="Path_15-3" data-name="Path 15" d="M363.091,37.344c3.67,5.621,3.514,11.569,1.964,16.7-1.809,6.057-7.6,15.334-24.033,14.515A95.519,95.519,0,0,1,329.6,67.411l2.377-16.371a20.978,20.978,0,0,0,10.388,2.237c1.964-.164,4.548-.873,5.272-3.984a6.289,6.289,0,0,0-.775-4.857c-.724-1.091-1.4-2.237-2.119-3.165a56.616,56.616,0,0,1-5.427-8.022,26.2,26.2,0,0,1-1.912-17.79C339.213,9.4,344.02-.418,360.455.455a78.744,78.744,0,0,1,10.388,1.2l-2.429,16.371a17.206,17.206,0,0,0-9.355-2.292c-1.964.164-4.548.819-5.272,3.929a6.128,6.128,0,0,0,.775,4.857C355.235,25.72,361.385,34.779,363.091,37.344Z" transform="translate(-160.08 -0.182)" fill="#707070"/>
      <path id="Path_16-3" data-name="Path 16" d="M335.091,167.644c3.67,5.621,3.514,11.569,1.964,16.7-1.809,6.057-7.6,15.334-24.033,14.515a95.516,95.516,0,0,1-11.422-1.146l2.377-16.371a20.978,20.978,0,0,0,10.388,2.237c1.964-.164,4.548-.873,5.272-3.984a6.289,6.289,0,0,0-.775-4.857c-.724-1.091-1.4-2.237-2.119-3.165a56.612,56.612,0,0,1-5.427-8.022,26.2,26.2,0,0,1-1.912-17.79c1.809-6.057,6.615-15.88,23.051-15.007a78.746,78.746,0,0,1,10.388,1.2l-2.429,16.371a17.206,17.206,0,0,0-9.355-2.292c-1.964.164-4.548.819-5.272,3.929a6.128,6.128,0,0,0,.775,4.857C327.235,156.02,333.385,165.079,335.091,167.644Z" transform="translate(-146.551 -59.378)" fill="#707070"/>
    </g>
    <g id="logo-white-1-4" data-name="logo-white-1" transform="translate(1170.275 3212.758)">
      <path id="Path_1-4" data-name="Path 1" d="M83.744,31.05l-.362,2.838C80.954,50.095,74.907,67.5,55.112,67.721c-18.3.164-20.932-16.917-18.451-33.56C39.09,17.9,47.411,0,65.6,0,75.682,0,86.949,4.966,84.623,24.775l-17.469.055c1.085-8.567-.775-8.949-3.773-8.949-7.752,0-9.355,14.243-10.078,19.208C52.838,39.781,50.564,52,57.076,51.841c5.737-.109,6.409-5.13,7.546-8.458l-5.53-.109L60.746,31.05Z" transform="translate(-18.159)" fill="#707070"/>
      <path id="Path_2-4" data-name="Path 2" d="M127.4,68.947,137.271,3.3h16.8l-9.82,65.647Z" transform="translate(-62.383 -1.499)" fill="#707070"/>
      <path id="Path_3-4" data-name="Path 3" d="M265.7,68.947,275.52,3.3h16.849l-7.546,50.2h12.611L295.108,69H265.7Z" transform="translate(-129.205 -1.499)" fill="#707070"/>
      <path id="Path_4-4" data-name="Path 4" d="M453.768,68.9l.052-8.458H442.5L439.814,68.9H422.5L447.308,3.2h20.57l3.359,65.7Zm.155-22.373.465-15.225c.1-4.093.413-8.295.62-12.387H454.8c-1.085,4.093-2.171,8.295-3.411,12.387l-4.6,15.225Z" transform="translate(-204.967 -1.454)" fill="#707070"/>
      <path id="Path_5-4" data-name="Path 5" d="M625.82,3.3h31.268l-2.326,15.5h-14.42l-1.4,9.168H651.92l-2.326,15.443H636.622l-1.5,10.041h14.471l-2.326,15.5H616Z" transform="translate(-298.46 -1.499)" fill="#707070"/>
      <path id="Path_6-4" data-name="Path 6" d="M32.868,198.8l.052-8.458H21.55L18.862,198.8H1.6l24.808-65.7h20.57l3.359,65.7Zm.1-22.373.465-15.225c.1-4.093.413-8.295.62-12.387H33.9c-1.085,4.093-2.171,8.295-3.411,12.387l-4.6,15.225Z" transform="translate(-1.6 -60.468)" fill="#707070"/>
      <path id="Path_7-4" data-name="Path 7" d="M243.771,133.1H275.04l-2.326,15.5h-14.42l-1.4,9.168h12.972l-2.326,15.5H254.573l-1.5,10.041h14.419l-2.326,15.5H233.9Z" transform="translate(-113.841 -60.468)" fill="#707070"/>
      <path id="Path_8-4" data-name="Path 8" d="M407.835,131.1c17.055,0,21.087,17.953,18.658,34s-11.784,34-28.839,34S376.566,181.14,379,165.1,390.728,131.1,407.835,131.1Zm-7.7,51.35c6.357,0,8.579-13.315,9.2-17.408s2.377-17.408-3.98-17.408-8.579,13.315-9.2,17.408S393.777,182.45,400.134,182.45Z" transform="translate(-183.634 -59.559)" fill="#707070"/>
      <path id="Path_9-4" data-name="Path 9" d="M605.272,133.1H636.54l-2.326,15.5h-14.42l-1.4,9.168h12.972l-2.326,15.5H616.073l-1.5,10.041h14.419l-2.326,15.5H595.4Z" transform="translate(-288.507 -60.468)" fill="#707070"/>
      <path id="Path_10-4" data-name="Path 10" d="M557.481,72,555,89.08l2.533-16.971Z" transform="translate(-268.987 -32.71)" fill="none"/>
      <g id="Group_1-4" data-name="Group 1" transform="translate(269.113 1.746)">
        <path id="Path_11-4" data-name="Path 11" d="M572.071,24.482C574.19,8.275,564.577,3.2,550,3.2H532.171L522.3,68.9h17.365l1.654-11.078L543.8,40.689l.052.164.31-2.019L549.175,68.9h18.968l-7.907-28.594C567.884,37.524,571.3,30.43,572.071,24.482Zm-16.745-.764a8.129,8.129,0,0,1-8.114,6.494l-1.861.055,1.912-12.715h2.119C553.568,17.552,556.1,19.462,555.325,23.718Z" transform="translate(-522.3 -3.2)" fill="#707070"/>
      </g>
      <g id="Group_2-4" data-name="Group 2" transform="translate(238.258 72.632)">
        <path id="Path_12-4" data-name="Path 12" d="M511.7,133.1l-12.094,40.491.31-40.491H479.707L462.6,198.8h18.089l5.427-26.739c.982-4.857,1.6-9.659,2.429-14.57h.155l-.31,41.309h13.7l8.838-26.9c1.55-4.8,2.843-9.6,4.29-14.352h.155l-4.651,41.309h17.469l3.824-65.7H511.7Z" transform="translate(-462.6 -133.1)" fill="#707070"/>
      </g>
      <path id="Path_13-4" data-name="Path 13" d="M164.864,133.1l2.326,14.952-10.853-5.73-5.84,28.649-2.119,10.641v-.218l-.517,2.4-4.6-50.641h-16.59l-9.716,50.913-2.739-50.913H98.4l4.031,65.7h23.981l7.081-38.963c-.1,4.529,4.238,38.963,4.238,38.963h21.707l16.642-65.7H164.864Z" transform="translate(-48.371 -60.468)" fill="#707070"/>
      <path id="Path_14-4" data-name="Path 14" d="M221.371,24.482C223.49,8.275,213.877,3.2,199.3,3.2H181.471L171.6,68.9h6.615l-.775-8.622,11.939,6.112,4.7-31.869L199.457,68.9h18.037l-7.959-28.594C217.184,37.524,220.6,30.43,221.371,24.482Zm-16.745-.764a8.129,8.129,0,0,1-8.114,6.494l-1.861.055,1.912-12.715h2.119C202.868,17.552,205.452,19.462,204.625,23.718Z" transform="translate(-83.739 -1.454)" fill="#707070"/>
      <path id="Path_15-4" data-name="Path 15" d="M363.091,37.344c3.67,5.621,3.514,11.569,1.964,16.7-1.809,6.057-7.6,15.334-24.033,14.515A95.519,95.519,0,0,1,329.6,67.411l2.377-16.371a20.978,20.978,0,0,0,10.388,2.237c1.964-.164,4.548-.873,5.272-3.984a6.289,6.289,0,0,0-.775-4.857c-.724-1.091-1.4-2.237-2.119-3.165a56.616,56.616,0,0,1-5.427-8.022,26.2,26.2,0,0,1-1.912-17.79C339.213,9.4,344.02-.418,360.455.455a78.744,78.744,0,0,1,10.388,1.2l-2.429,16.371a17.206,17.206,0,0,0-9.355-2.292c-1.964.164-4.548.819-5.272,3.929a6.128,6.128,0,0,0,.775,4.857C355.235,25.72,361.385,34.779,363.091,37.344Z" transform="translate(-160.08 -0.182)" fill="#707070"/>
      <path id="Path_16-4" data-name="Path 16" d="M335.091,167.644c3.67,5.621,3.514,11.569,1.964,16.7-1.809,6.057-7.6,15.334-24.033,14.515a95.516,95.516,0,0,1-11.422-1.146l2.377-16.371a20.978,20.978,0,0,0,10.388,2.237c1.964-.164,4.548-.873,5.272-3.984a6.289,6.289,0,0,0-.775-4.857c-.724-1.091-1.4-2.237-2.119-3.165a56.612,56.612,0,0,1-5.427-8.022,26.2,26.2,0,0,1-1.912-17.79c1.809-6.057,6.615-15.88,23.051-15.007a78.746,78.746,0,0,1,10.388,1.2l-2.429,16.371a17.206,17.206,0,0,0-9.355-2.292c-1.964.164-4.548.819-5.272,3.929a6.128,6.128,0,0,0,.775,4.857C327.235,156.02,333.385,165.079,335.091,167.644Z" transform="translate(-146.551 -59.378)" fill="#707070"/>
    </g>
    <g id="logo-white-1-5" data-name="logo-white-1" transform="translate(1559.534 3217.758)">
      <path id="Path_1-5" data-name="Path 1" d="M83.744,31.05l-.362,2.838C80.954,50.095,74.907,67.5,55.112,67.721c-18.3.164-20.932-16.917-18.451-33.56C39.09,17.9,47.411,0,65.6,0,75.682,0,86.949,4.966,84.623,24.775l-17.469.055c1.085-8.567-.775-8.949-3.773-8.949-7.752,0-9.355,14.243-10.078,19.208C52.838,39.781,50.564,52,57.076,51.841c5.737-.109,6.409-5.13,7.546-8.458l-5.53-.109L60.746,31.05Z" transform="translate(-18.159)" fill="#707070"/>
      <path id="Path_2-5" data-name="Path 2" d="M127.4,68.947,137.271,3.3h16.8l-9.82,65.647Z" transform="translate(-62.383 -1.499)" fill="#707070"/>
      <path id="Path_3-5" data-name="Path 3" d="M265.7,68.947,275.52,3.3h16.849l-7.546,50.2h12.611L295.108,69H265.7Z" transform="translate(-129.205 -1.499)" fill="#707070"/>
      <path id="Path_4-5" data-name="Path 4" d="M453.768,68.9l.052-8.458H442.5L439.814,68.9H422.5L447.308,3.2h20.57l3.359,65.7Zm.155-22.373.465-15.225c.1-4.093.413-8.295.62-12.387H454.8c-1.085,4.093-2.171,8.295-3.411,12.387l-4.6,15.225Z" transform="translate(-204.967 -1.454)" fill="#707070"/>
      <path id="Path_5-5" data-name="Path 5" d="M625.82,3.3h31.268l-2.326,15.5h-14.42l-1.4,9.168H651.92l-2.326,15.443H636.622l-1.5,10.041h14.471l-2.326,15.5H616Z" transform="translate(-298.46 -1.499)" fill="#707070"/>
      <path id="Path_6-5" data-name="Path 6" d="M32.868,198.8l.052-8.458H21.55L18.862,198.8H1.6l24.808-65.7h20.57l3.359,65.7Zm.1-22.373.465-15.225c.1-4.093.413-8.295.62-12.387H33.9c-1.085,4.093-2.171,8.295-3.411,12.387l-4.6,15.225Z" transform="translate(-1.6 -60.468)" fill="#707070"/>
      <path id="Path_7-5" data-name="Path 7" d="M243.771,133.1H275.04l-2.326,15.5h-14.42l-1.4,9.168h12.972l-2.326,15.5H254.573l-1.5,10.041h14.419l-2.326,15.5H233.9Z" transform="translate(-113.841 -60.468)" fill="#707070"/>
      <path id="Path_8-5" data-name="Path 8" d="M407.835,131.1c17.055,0,21.087,17.953,18.658,34s-11.784,34-28.839,34S376.566,181.14,379,165.1,390.728,131.1,407.835,131.1Zm-7.7,51.35c6.357,0,8.579-13.315,9.2-17.408s2.377-17.408-3.98-17.408-8.579,13.315-9.2,17.408S393.777,182.45,400.134,182.45Z" transform="translate(-183.634 -59.559)" fill="#707070"/>
      <path id="Path_9-5" data-name="Path 9" d="M605.272,133.1H636.54l-2.326,15.5h-14.42l-1.4,9.168h12.972l-2.326,15.5H616.073l-1.5,10.041h14.419l-2.326,15.5H595.4Z" transform="translate(-288.507 -60.468)" fill="#707070"/>
      <path id="Path_10-5" data-name="Path 10" d="M557.481,72,555,89.08l2.533-16.971Z" transform="translate(-268.987 -32.71)" fill="none"/>
      <g id="Group_1-5" data-name="Group 1" transform="translate(269.113 1.746)">
        <path id="Path_11-5" data-name="Path 11" d="M572.071,24.482C574.19,8.275,564.577,3.2,550,3.2H532.171L522.3,68.9h17.365l1.654-11.078L543.8,40.689l.052.164.31-2.019L549.175,68.9h18.968l-7.907-28.594C567.884,37.524,571.3,30.43,572.071,24.482Zm-16.745-.764a8.129,8.129,0,0,1-8.114,6.494l-1.861.055,1.912-12.715h2.119C553.568,17.552,556.1,19.462,555.325,23.718Z" transform="translate(-522.3 -3.2)" fill="#707070"/>
      </g>
      <g id="Group_2-5" data-name="Group 2" transform="translate(238.258 72.632)">
        <path id="Path_12-5" data-name="Path 12" d="M511.7,133.1l-12.094,40.491.31-40.491H479.707L462.6,198.8h18.089l5.427-26.739c.982-4.857,1.6-9.659,2.429-14.57h.155l-.31,41.309h13.7l8.838-26.9c1.55-4.8,2.843-9.6,4.29-14.352h.155l-4.651,41.309h17.469l3.824-65.7H511.7Z" transform="translate(-462.6 -133.1)" fill="#707070"/>
      </g>
      <path id="Path_13-5" data-name="Path 13" d="M164.864,133.1l2.326,14.952-10.853-5.73-5.84,28.649-2.119,10.641v-.218l-.517,2.4-4.6-50.641h-16.59l-9.716,50.913-2.739-50.913H98.4l4.031,65.7h23.981l7.081-38.963c-.1,4.529,4.238,38.963,4.238,38.963h21.707l16.642-65.7H164.864Z" transform="translate(-48.371 -60.468)" fill="#707070"/>
      <path id="Path_14-5" data-name="Path 14" d="M221.371,24.482C223.49,8.275,213.877,3.2,199.3,3.2H181.471L171.6,68.9h6.615l-.775-8.622,11.939,6.112,4.7-31.869L199.457,68.9h18.037l-7.959-28.594C217.184,37.524,220.6,30.43,221.371,24.482Zm-16.745-.764a8.129,8.129,0,0,1-8.114,6.494l-1.861.055,1.912-12.715h2.119C202.868,17.552,205.452,19.462,204.625,23.718Z" transform="translate(-83.739 -1.454)" fill="#707070"/>
      <path id="Path_15-5" data-name="Path 15" d="M363.091,37.344c3.67,5.621,3.514,11.569,1.964,16.7-1.809,6.057-7.6,15.334-24.033,14.515A95.519,95.519,0,0,1,329.6,67.411l2.377-16.371a20.978,20.978,0,0,0,10.388,2.237c1.964-.164,4.548-.873,5.272-3.984a6.289,6.289,0,0,0-.775-4.857c-.724-1.091-1.4-2.237-2.119-3.165a56.616,56.616,0,0,1-5.427-8.022,26.2,26.2,0,0,1-1.912-17.79C339.213,9.4,344.02-.418,360.455.455a78.744,78.744,0,0,1,10.388,1.2l-2.429,16.371a17.206,17.206,0,0,0-9.355-2.292c-1.964.164-4.548.819-5.272,3.929a6.128,6.128,0,0,0,.775,4.857C355.235,25.72,361.385,34.779,363.091,37.344Z" transform="translate(-160.08 -0.182)" fill="#707070"/>
      <path id="Path_16-5" data-name="Path 16" d="M335.091,167.644c3.67,5.621,3.514,11.569,1.964,16.7-1.809,6.057-7.6,15.334-24.033,14.515a95.516,95.516,0,0,1-11.422-1.146l2.377-16.371a20.978,20.978,0,0,0,10.388,2.237c1.964-.164,4.548-.873,5.272-3.984a6.289,6.289,0,0,0-.775-4.857c-.724-1.091-1.4-2.237-2.119-3.165a56.612,56.612,0,0,1-5.427-8.022,26.2,26.2,0,0,1-1.912-17.79c1.809-6.057,6.615-15.88,23.051-15.007a78.746,78.746,0,0,1,10.388,1.2l-2.429,16.371a17.206,17.206,0,0,0-9.355-2.292c-1.964.164-4.548.819-5.272,3.929a6.128,6.128,0,0,0,.775,4.857C327.235,156.02,333.385,165.079,335.091,167.644Z" transform="translate(-146.551 -59.378)" fill="#707070"/>
    </g>
  </g>
</svg>
