<svg xmlns="http://www.w3.org/2000/svg" width="378.658" height="139.534" viewBox="0 0 378.658 139.534">
  <g id="logo-white-1" transform="translate(-1.6)" opacity="0.68">
    <path id="Path_1" data-name="Path 1" d="M86.418,31.05l-.382,2.838C83.471,50.095,77.087,67.5,56.187,67.721c-19.318.164-22.1-16.917-19.481-33.56C39.27,17.9,48.056,0,67.264,0,77.905,0,89.8,4.966,87.346,24.775L68.9,24.829c1.146-8.567-.819-8.949-3.984-8.949-8.185,0-9.877,14.243-10.641,19.208C53.786,39.781,51.385,52,58.26,51.841c6.057-.109,6.767-5.13,7.967-8.458l-5.839-.109L62.135,31.05Z" transform="translate(-15.57)" fill="#fff"/>
    <path id="Path_2" data-name="Path 2" d="M127.4,68.947,137.823,3.3h17.735L145.19,68.947Z" transform="translate(-57.152 -1.499)" fill="#fff"/>
    <path id="Path_3" data-name="Path 3" d="M265.7,68.947,276.068,3.3h17.79l-7.967,50.2h13.315L296.75,69H265.7Z" transform="translate(-119.982 -1.499)" fill="#fff"/>
    <path id="Path_4" data-name="Path 4" d="M455.515,68.9l.055-8.458H443.618L440.781,68.9H422.5L448.693,3.2h21.719l3.547,65.7Zm.164-22.373.491-15.225c.109-4.093.437-8.295.655-12.387h-.218c-1.146,4.093-2.292,8.295-3.6,12.387l-4.857,15.225Z" transform="translate(-191.217 -1.454)" fill="#fff"/>
    <path id="Path_5" data-name="Path 5" d="M626.368,3.3h33.015l-2.456,15.5H641.7l-1.473,9.168h13.7L651.47,43.409h-13.7l-1.583,10.041H651.47l-2.456,15.5H616Z" transform="translate(-279.125 -1.499)" fill="#fff"/>
    <path id="Path_6" data-name="Path 6" d="M34.615,198.8l.055-8.458H22.664L19.826,198.8H1.6l26.193-65.7H49.512l3.547,65.7Zm.109-22.373.491-15.225c.109-4.093.437-8.295.655-12.387h-.164c-1.146,4.093-2.292,8.295-3.6,12.387l-4.857,15.225Z" transform="translate(0 -60.468)" fill="#fff"/>
    <path id="Path_7" data-name="Path 7" d="M244.323,133.1h33.015l-2.456,15.5H259.657l-1.473,9.168h13.7l-2.456,15.5h-13.7L254.145,183.3H269.37l-2.456,15.5H233.9Z" transform="translate(-105.535 -60.468)" fill="#fff"/>
    <path id="Path_8" data-name="Path 8" d="M409.481,131.1c18.008,0,22.264,17.953,19.7,34s-12.442,34-30.45,34-22.264-17.953-19.7-34S391.419,131.1,409.481,131.1Zm-8.131,51.35c6.712,0,9.059-13.315,9.713-17.408s2.51-17.408-4.2-17.408-9.059,13.315-9.713,17.408S394.638,182.45,401.351,182.45Z" transform="translate(-171.159 -59.559)" fill="#fff"/>
    <path id="Path_9" data-name="Path 9" d="M605.823,133.1h33.015l-2.456,15.5H621.157l-1.473,9.168h13.7l-2.456,15.5h-13.7L615.645,183.3H630.87l-2.456,15.5H595.4Z" transform="translate(-269.767 -60.468)" fill="#fff"/>
    <path id="Path_10" data-name="Path 10" d="M557.619,72,555,89.08l2.674-16.971Z" transform="translate(-251.413 -32.71)" fill="none"/>
    <g id="Group_1" data-name="Group 1" transform="translate(285.743 1.746)">
      <path id="Path_11" data-name="Path 11" d="M574.85,24.482C577.088,8.275,566.938,3.2,551.549,3.2H532.723L522.3,68.9h18.335l1.746-11.078L545,40.689l.055.164.327-2.019L550.676,68.9H570.7l-8.349-28.594C570.43,37.524,574.032,30.43,574.85,24.482Zm-17.681-.764a8.479,8.479,0,0,1-8.567,6.494l-1.965.055,2.019-12.715h2.237C555.314,17.552,557.988,19.462,557.17,23.718Z" transform="translate(-522.3 -3.2)" fill="#fff"/>
    </g>
    <g id="Group_2" data-name="Group 2" transform="translate(253.165 72.632)">
      <path id="Path_12" data-name="Path 12" d="M514.441,133.1l-12.769,40.491L502,133.1H480.663L462.6,198.8h19.1l5.73-26.739c1.037-4.857,1.692-9.659,2.565-14.57h.164L489.83,198.8h14.461l9.331-26.9c1.637-4.8,3-9.6,4.529-14.352h.164L513.4,198.856h18.445l4.038-65.7H514.441Z" transform="translate(-462.6 -133.1)" fill="#fff"/>
    </g>
    <path id="Path_13" data-name="Path 13" d="M168.576,133.1l2.456,14.952-11.46-5.73-6.166,28.649-2.237,10.641v-.218l-.546,2.4-4.857-50.64H128.25L117.99,184.068,115.1,133.155H98.4l4.256,65.7h25.32l7.476-38.963c-.109,4.529,4.475,38.963,4.475,38.963h22.919l17.571-65.7H168.576Z" transform="translate(-43.977 -60.468)" fill="#fff"/>
    <path id="Path_14" data-name="Path 14" d="M224.15,24.482C226.388,8.275,216.238,3.2,200.849,3.2H182.023L171.6,68.9h6.985l-.819-8.622,12.606,6.112,4.966-31.869L201.013,68.9h19.045l-8.4-28.594C219.73,37.524,223.332,30.43,224.15,24.482Zm-17.681-.764a8.478,8.478,0,0,1-8.567,6.494l-1.964.055,2.019-12.715h2.237C204.615,17.552,207.343,19.462,206.47,23.718Z" transform="translate(-77.232 -1.454)" fill="#fff"/>
    <path id="Path_15" data-name="Path 15" d="M364.961,37.344c3.874,5.621,3.711,11.569,2.074,16.7-1.91,6.057-8.022,15.334-25.375,14.515a106.312,106.312,0,0,1-12.06-1.146l2.51-16.371a23.177,23.177,0,0,0,10.968,2.237c2.074-.164,4.8-.873,5.566-3.984a6,6,0,0,0-.819-4.857c-.764-1.091-1.473-2.237-2.237-3.165a56.5,56.5,0,0,1-5.73-8.022c-2.565-4.366-3.765-12.169-2.019-17.79C339.75,9.4,344.825-.418,362.178.455a87.6,87.6,0,0,1,10.969,1.2l-2.565,16.371a18.962,18.962,0,0,0-9.877-2.292c-2.074.164-4.8.819-5.566,3.929a5.851,5.851,0,0,0,.818,4.857C356.667,25.72,363.16,34.779,364.961,37.344Z" transform="translate(-149.012 -0.182)" fill="#fff"/>
    <path id="Path_16" data-name="Path 16" d="M336.961,167.644c3.875,5.621,3.711,11.569,2.074,16.7-1.91,6.057-8.022,15.334-25.375,14.515a106.309,106.309,0,0,1-12.06-1.146l2.51-16.371a23.177,23.177,0,0,0,10.969,2.237c2.074-.164,4.8-.873,5.566-3.984a6,6,0,0,0-.819-4.857c-.764-1.091-1.473-2.237-2.237-3.165a56.5,56.5,0,0,1-5.73-8.022c-2.565-4.366-3.765-12.169-2.019-17.79,1.91-6.057,6.985-15.88,24.338-15.007a87.6,87.6,0,0,1,10.968,1.2l-2.565,16.371a18.962,18.962,0,0,0-9.877-2.292c-2.074.164-4.8.819-5.566,3.929a5.852,5.852,0,0,0,.819,4.857C328.667,156.02,335.16,165.079,336.961,167.644Z" transform="translate(-136.292 -59.378)" fill="#fff"/>
  </g>
</svg>
