<svg xmlns="http://www.w3.org/2000/svg" width="250.455" height="92.292" viewBox="0 0 250.455 92.292">
  <g id="logo-white-1" transform="translate(-1.6)">
    <path id="Path_1" data-name="Path 1" d="M69.3,20.537l-.253,1.877c-1.7,10.72-5.919,22.234-19.743,22.378C36.531,44.9,34.69,33.6,36.423,22.595,38.119,11.839,43.93,0,56.635,0c7.038,0,14.907,3.285,13.283,16.387l-12.2.036c.758-5.667-.541-5.919-2.635-5.919-5.414,0-6.533,9.42-7.038,12.705-.325,3.1-1.913,11.189,2.635,11.081,4.006-.072,4.476-3.393,5.27-5.595l-3.862-.072,1.155-8.085Z" transform="translate(-21.901)" fill="#fff"/>
    <path id="Path_2" data-name="Path 2" d="M127.4,46.721,134.294,3.3h11.73l-6.858,43.421Z" transform="translate(-80.394 -2.109)" fill="#fff"/>
    <path id="Path_3" data-name="Path 3" d="M265.7,46.721,272.558,3.3h11.767l-5.27,33.206h8.807l-1.624,10.251H265.7Z" transform="translate(-168.776 -2.109)" fill="#fff"/>
    <path id="Path_4" data-name="Path 4" d="M444.337,46.657l.036-5.595h-7.9l-1.877,5.595H422.5L439.825,3.2H454.19l2.346,43.457Zm.108-14.8.325-10.07c.072-2.707.289-5.486.433-8.193h-.144c-.758,2.707-1.516,5.486-2.382,8.193l-3.212,10.07Z" transform="translate(-268.981 -2.045)" fill="#fff"/>
    <path id="Path_5" data-name="Path 5" d="M622.858,3.3h21.837L643.07,13.551H633l-.975,6.064h9.06l-1.624,10.215H630.4l-1.047,6.641h10.106l-1.624,10.251H616Z" transform="translate(-392.64 -2.109)" fill="#fff"/>
    <path id="Path_6" data-name="Path 6" d="M23.437,176.557l.036-5.595H15.532l-1.877,5.595H1.6L18.925,133.1H33.29l2.346,43.457Zm.072-14.8.325-10.07c.072-2.707.289-5.486.433-8.193h-.108c-.758,2.707-1.516,5.486-2.382,8.193l-3.212,10.07Z" transform="translate(0 -85.059)" fill="#fff"/>
    <path id="Path_7" data-name="Path 7" d="M240.794,133.1h21.837l-1.624,10.251h-10.07l-.975,6.064h9.06L257.4,159.665h-9.06l-1.047,6.641h10.07l-1.624,10.251H233.9Z" transform="translate(-148.454 -85.059)" fill="#fff"/>
    <path id="Path_8" data-name="Path 8" d="M398.941,131.1c11.911,0,14.726,11.875,13.03,22.486s-8.229,22.486-20.14,22.486S377.1,164.2,378.8,153.586,386.994,131.1,398.941,131.1Zm-5.378,33.964c4.44,0,5.992-8.807,6.425-11.514s1.66-11.514-2.779-11.514-5.992,8.807-6.425,11.514S389.123,165.064,393.563,165.064Z" transform="translate(-240.766 -83.781)" fill="#fff"/>
    <path id="Path_9" data-name="Path 9" d="M602.294,133.1h21.837l-1.624,10.251h-10.07l-.975,6.064h9.06L618.9,159.665h-9.06l-1.047,6.641h10.07l-1.624,10.251H595.4Z" transform="translate(-379.475 -85.059)" fill="#fff"/>
    <path id="Path_10" data-name="Path 10" d="M556.733,72,555,83.3l1.769-11.225Z" transform="translate(-353.657 -46.012)" fill="none"/>
    <g id="Group_1" data-name="Group 1" transform="translate(189.54 1.155)">
      <path id="Path_11" data-name="Path 11" d="M557.058,17.277C558.538,6.557,551.825,3.2,541.646,3.2H529.194L522.3,46.657h12.127l1.155-7.327L537.315,28l.036.108.217-1.335,3.5,19.888h13.246l-5.522-18.913A12.6,12.6,0,0,0,557.058,17.277Zm-11.694-.505a5.608,5.608,0,0,1-5.667,4.3l-1.3.036,1.336-8.41h1.48C544.137,12.693,545.905,13.956,545.364,16.771Z" transform="translate(-522.3 -3.2)" fill="#fff"/>
    </g>
    <g id="Group_2" data-name="Group 2" transform="translate(167.992 48.041)">
      <path id="Path_12" data-name="Path 12" d="M496.889,133.1l-8.446,26.782.216-26.782H474.547L462.6,176.557h12.633l3.79-17.686c.686-3.212,1.119-6.389,1.7-9.637h.108l-.217,27.323h9.565l6.172-17.794c1.083-3.176,1.985-6.353,3-9.493h.108L496.2,176.593h12.2l2.671-43.457H496.889Z" transform="translate(-462.6 -133.1)" fill="#fff"/>
    </g>
    <path id="Path_13" data-name="Path 13" d="M144.817,133.1l1.624,9.89-7.58-3.79-4.079,18.949-1.48,7.038v-.144l-.361,1.588-3.212-33.5H118.143l-6.786,33.676-1.913-33.676H98.4l2.815,43.457h16.748l4.945-25.771c-.072,3,2.96,25.771,2.96,25.771h15.159l11.622-43.457h-7.832Z" transform="translate(-61.861 -85.059)" fill="#fff"/>
    <path id="Path_14" data-name="Path 14" d="M206.358,17.277C207.838,6.557,201.125,3.2,190.946,3.2H178.494L171.6,46.657h4.62l-.541-5.7L184.016,45,187.3,23.918l3.754,22.739h12.6l-5.558-18.913A12.6,12.6,0,0,0,206.358,17.277Zm-11.694-.505a5.608,5.608,0,0,1-5.667,4.3l-1.3.036,1.335-8.41h1.48C193.437,12.693,195.241,13.956,194.664,16.771Z" transform="translate(-108.641 -2.045)" fill="#fff"/>
    <path id="Path_15" data-name="Path 15" d="M352.989,24.836A12.184,12.184,0,0,1,354.36,35.88c-1.263,4.006-5.306,10.142-16.784,9.6a70.319,70.319,0,0,1-7.977-.758L331.26,33.9a15.33,15.33,0,0,0,7.255,1.48c1.372-.108,3.176-.577,3.682-2.635a3.972,3.972,0,0,0-.541-3.212c-.505-.722-.975-1.48-1.48-2.093a37.369,37.369,0,0,1-3.79-5.306,16.5,16.5,0,0,1-1.335-11.767c1.263-4.006,4.62-10.5,16.1-9.926a57.939,57.939,0,0,1,7.255.794l-1.7,10.828a12.542,12.542,0,0,0-6.533-1.516c-1.372.108-3.176.541-3.682,2.6a3.87,3.87,0,0,0,.541,3.212C347.5,17.148,351.8,23.139,352.989,24.836Z" transform="translate(-209.612 -0.256)" fill="#fff"/>
    <path id="Path_16" data-name="Path 16" d="M324.989,155.136a12.184,12.184,0,0,1,1.372,11.045c-1.263,4.006-5.306,10.142-16.784,9.6a70.317,70.317,0,0,1-7.977-.758l1.66-10.828a15.33,15.33,0,0,0,7.255,1.48c1.372-.108,3.176-.578,3.682-2.635a3.972,3.972,0,0,0-.541-3.212c-.505-.722-.975-1.48-1.48-2.093a37.367,37.367,0,0,1-3.79-5.306,16.5,16.5,0,0,1-1.335-11.767c1.263-4.006,4.62-10.5,16.1-9.926a57.941,57.941,0,0,1,7.255.794l-1.7,10.828a12.542,12.542,0,0,0-6.533-1.516c-1.372.108-3.176.541-3.682,2.6a3.87,3.87,0,0,0,.541,3.212C319.5,147.448,323.8,153.439,324.989,155.136Z" transform="translate(-191.719 -83.526)" fill="#fff"/>
  </g>
</svg>
